<?xml version="1.0" encoding="utf-8"?>
<!-- Generator: Adobe Illustrator 26.0.2, SVG Export Plug-In . SVG Version: 6.00 Build 0)  -->
<svg version="1.1" id="Layer_1" xmlns="http://www.w3.org/2000/svg" xmlns:xlink="http://www.w3.org/1999/xlink" x="0px" y="0px"
	 viewBox="0 0 170 100" style="enable-background:new 0 0 170 100;" xml:space="preserve">
<style type="text/css">
	.st0{fill:#5FA4A3;}
	.st1{font-family:'OpenSans-Bold';}
	.st2{font-size:4.3858px;}
	.st3{font-size:8.8306px;}
</style>
<g>
	
		<image style="overflow:visible;" width="1653" height="1464" xlink:href="369CCD5D.png"  transform="matrix(4.135857e-02 0 0 4.135857e-02 5.1075 19.7255)">
	</image>
	<g>
		<g>
			<path class="st0" d="M93.8,46.7c0,1.3-0.3,2.5-1,3.6c-0.6,1.1-1.6,2.1-3,2.8c-1.4,0.7-3.1,1.1-5.3,1.1c-1.1,0-2,0-2.8-0.1
				c-0.8-0.1-1.6-0.3-2.3-0.5c-0.7-0.2-1.4-0.5-2.2-0.9V47c1.3,0.6,2.6,1.1,3.9,1.5c1.3,0.3,2.5,0.5,3.5,0.5c0.6,0,1.2-0.1,1.6-0.2
				c0.4-0.2,0.7-0.4,0.9-0.6c0.2-0.3,0.3-0.6,0.3-0.9c0-0.4-0.1-0.8-0.4-1c-0.3-0.3-0.7-0.6-1.4-0.9c-0.6-0.3-1.4-0.7-2.5-1.2
				c-0.9-0.4-1.7-0.8-2.4-1.3c-0.7-0.4-1.3-0.9-1.8-1.5c-0.5-0.6-0.9-1.2-1.2-1.9c-0.3-0.7-0.4-1.6-0.4-2.6c0-1.5,0.4-2.8,1.1-3.8
				c0.7-1,1.8-1.8,3.1-2.3c1.3-0.5,2.9-0.8,4.6-0.8c1.5,0,2.9,0.2,4.1,0.5c1.2,0.3,2.3,0.7,3.3,1.2l-1.9,4.9c-1-0.5-2-0.8-3-1.1
				c-1-0.3-1.9-0.4-2.7-0.4c-0.5,0-1,0.1-1.3,0.2c-0.3,0.1-0.6,0.3-0.8,0.5c-0.2,0.2-0.2,0.5-0.2,0.8c0,0.4,0.1,0.7,0.4,1
				c0.3,0.3,0.8,0.6,1.4,0.9c0.7,0.3,1.6,0.8,2.7,1.3c1.1,0.5,2.1,1.1,2.9,1.7c0.8,0.6,1.4,1.3,1.8,2.1
				C93.6,44.4,93.8,45.5,93.8,46.7z"/>
			<path class="st0" d="M105.6,30.3c3,0,5.2,0.7,6.7,1.9c1.5,1.3,2.2,3.1,2.2,5.5c0,1.1-0.2,2.1-0.5,3.1c-0.3,1-0.8,1.9-1.5,2.6
				s-1.6,1.4-2.8,1.8c-1.1,0.5-2.6,0.7-4.2,0.7h-1.8v7.8h-6.4V30.3H105.6z M105.5,35.4h-1.6v5.4h1.3c0.5,0,1.1-0.1,1.5-0.3
				c0.5-0.2,0.9-0.5,1.1-0.9c0.3-0.4,0.4-1,0.4-1.7c0-0.7-0.2-1.3-0.7-1.8C107.1,35.7,106.4,35.4,105.5,35.4z"/>
			<path class="st0" d="M132.8,53.9l-1.2-4.4h-7.7l-1.2,4.4h-7l7.7-23.7h8.5l7.8,23.7H132.8z M130.3,44.2l-1-3.9
				c-0.1-0.4-0.3-1-0.5-1.8c-0.2-0.8-0.4-1.6-0.6-2.4c-0.2-0.8-0.4-1.5-0.5-2.1c-0.1,0.5-0.2,1.2-0.4,2c-0.2,0.8-0.4,1.6-0.5,2.3
				c-0.2,0.8-0.4,1.4-0.5,1.9l-1,3.9H130.3z"/>
			<path class="st0" d="M164.7,53.9h-8.3l-8.6-16.6h-0.1c0.1,0.5,0.1,1.1,0.1,1.8c0,0.7,0.1,1.4,0.1,2.2c0,0.7,0,1.4,0,2v10.6h-5.6
				V30.3h8.3l8.6,16.4h0.1c0-0.5-0.1-1.1-0.1-1.8c0-0.7-0.1-1.4-0.1-2.1c0-0.7,0-1.3,0-1.9V30.3h5.7V53.9z"/>
		</g>
		<text transform="matrix(1 0 0 1 77.3043 60.7905)" class="st0 st1 st2">Suicide Prevention  Awareness Network</text>
		<text transform="matrix(1 0 0 1 76.8971 70.3041)" class="st0 st1 st3">Research &amp; Training</text>
	</g>
</g>
</svg>
