<?xml version="1.0" encoding="utf-8"?>
<!-- Generator: Adobe Illustrator 26.0.2, SVG Export Plug-In . SVG Version: 6.00 Build 0)  -->
<svg version="1.1" id="Layer_1" xmlns="http://www.w3.org/2000/svg" xmlns:xlink="http://www.w3.org/1999/xlink" x="0px" y="0px"
	 viewBox="0 0 170 100" style="enable-background:new 0 0 170 100;" xml:space="preserve">
<style type="text/css">
	.st0{fill:#5FA4A3;}
	.st1{enable-background:new    ;}
</style>
<g>
	
		<image style="overflow:visible;enable-background:new    ;" width="1668" height="1499" xlink:href="369CCD5D.png"  transform="matrix(4.072243e-02 0 0 4.072243e-02 5.3279 19.4785)">
	</image>
	<g>
		<g>
			<path class="st0" d="M93.9,53.3c0,1.3-0.3,2.5-1,3.6c-0.6,1.1-1.6,2.1-3,2.8s-3.1,1.1-5.3,1.1c-1.1,0-2,0-2.8-0.1
				s-1.6-0.3-2.3-0.5c-0.7-0.2-1.4-0.5-2.2-0.9v-5.7c1.3,0.6,2.6,1.1,3.9,1.5c1.3,0.3,2.5,0.5,3.5,0.5c0.6,0,1.2-0.1,1.6-0.2
				c0.4-0.2,0.7-0.4,0.9-0.6c0.2-0.3,0.3-0.6,0.3-0.9c0-0.4-0.1-0.8-0.4-1c-0.3-0.3-0.7-0.6-1.4-0.9c-0.6-0.3-1.4-0.7-2.5-1.2
				c-0.9-0.4-1.7-0.8-2.4-1.3c-0.7-0.4-1.3-0.9-1.8-1.5s-0.9-1.2-1.2-1.9c-0.3-0.7-0.4-1.6-0.4-2.6c0-1.5,0.4-2.8,1.1-3.8
				s1.8-1.8,3.1-2.3c1.3-0.5,2.9-0.8,4.6-0.8c1.5,0,2.9,0.2,4.1,0.5s2.3,0.7,3.3,1.2l-1.9,4.9c-1-0.5-2-0.8-3-1.1s-1.9-0.4-2.7-0.4
				c-0.5,0-1,0.1-1.3,0.2c-0.3,0.1-0.6,0.3-0.8,0.5c-0.2,0.2-0.2,0.5-0.2,0.8c0,0.4,0.1,0.7,0.4,1s0.8,0.6,1.4,0.9
				c0.7,0.3,1.6,0.8,2.7,1.3s2.1,1.1,2.9,1.7c0.8,0.6,1.4,1.3,1.8,2.1C93.7,51,93.9,52.1,93.9,53.3z"/>
			<path class="st0" d="M105.7,36.9c3,0,5.2,0.7,6.7,1.9c1.5,1.3,2.2,3.1,2.2,5.5c0,1.1-0.2,2.1-0.5,3.1s-0.8,1.9-1.5,2.6
				s-1.6,1.4-2.8,1.8c-1.1,0.5-2.6,0.7-4.2,0.7h-1.8v7.8h-6.4V36.9H105.7z M105.6,42H104v5.4h1.3c0.5,0,1.1-0.1,1.5-0.3
				c0.5-0.2,0.9-0.5,1.1-0.9c0.3-0.4,0.4-1,0.4-1.7s-0.2-1.3-0.7-1.8C107.2,42.3,106.5,42,105.6,42z"/>
			<path class="st0" d="M132.9,60.5l-1.2-4.4H124l-1.2,4.4h-7l7.7-23.7h8.5l7.8,23.7H132.9z M130.4,50.8l-1-3.9
				c-0.1-0.4-0.3-1-0.5-1.8s-0.4-1.6-0.6-2.4c-0.2-0.8-0.4-1.5-0.5-2.1c-0.1,0.5-0.2,1.2-0.4,2c-0.2,0.8-0.4,1.6-0.5,2.3
				c-0.2,0.8-0.4,1.4-0.5,1.9l-1,3.9L130.4,50.8L130.4,50.8z"/>
			<path class="st0" d="M164.8,60.5h-8.3l-8.6-16.6h-0.1c0.1,0.5,0.1,1.1,0.1,1.8s0.1,1.4,0.1,2.2c0,0.7,0,1.4,0,2v10.6h-5.6V36.9
				h8.3l8.6,16.4h0.1c0-0.5-0.1-1.1-0.1-1.8s-0.1-1.4-0.1-2.1c0-0.7,0-1.3,0-1.9V36.9h5.7L164.8,60.5L164.8,60.5z"/>
		</g>
		<g class="st1">
			<path class="st0" d="M79.5,64c0.6,0,1,0.1,1.4,0.2c0.4,0.1,0.6,0.3,0.8,0.6c0.2,0.3,0.3,0.6,0.3,1.1c0,0.3-0.1,0.5-0.2,0.8
				c-0.1,0.2-0.3,0.4-0.4,0.5s-0.4,0.3-0.6,0.4l1.9,2.7h-1.5l-1.5-2.4H79v2.4h-1.3V64H79.5z M79.4,65.1H79v1.7h0.4
				c0.4,0,0.8-0.1,1-0.2c0.2-0.1,0.3-0.4,0.3-0.7c0-0.3-0.1-0.5-0.3-0.6C80.2,65.2,79.9,65.1,79.4,65.1z"/>
			<path class="st0" d="M85.4,65.4c0.4,0,0.8,0.1,1.2,0.3s0.6,0.4,0.7,0.7c0.2,0.3,0.3,0.7,0.3,1.2v0.6h-3.1c0,0.4,0.1,0.7,0.3,0.9
				c0.2,0.2,0.5,0.3,0.9,0.3c0.3,0,0.6,0,0.8-0.1s0.5-0.2,0.8-0.3v1c-0.2,0.1-0.5,0.2-0.7,0.3c-0.3,0.1-0.6,0.1-0.9,0.1
				c-0.5,0-0.9-0.1-1.3-0.3c-0.4-0.2-0.7-0.5-0.9-0.8c-0.2-0.4-0.3-0.8-0.3-1.4c0-0.6,0.1-1,0.3-1.4c0.2-0.4,0.5-0.7,0.8-0.8
				C84.6,65.5,85,65.4,85.4,65.4z M85.4,66.3c-0.3,0-0.5,0.1-0.6,0.2s-0.3,0.4-0.3,0.8h1.8c0-0.2,0-0.4-0.1-0.5s-0.2-0.3-0.3-0.4
				S85.6,66.3,85.4,66.3z"/>
			<path class="st0" d="M92,68.9c0,0.3-0.1,0.6-0.2,0.8c-0.2,0.2-0.4,0.4-0.7,0.5c-0.3,0.1-0.7,0.2-1.1,0.2c-0.3,0-0.6,0-0.9-0.1
				s-0.5-0.1-0.7-0.2V69c0.3,0.1,0.5,0.2,0.8,0.3s0.6,0.1,0.8,0.1c0.3,0,0.4,0,0.5-0.1s0.2-0.2,0.2-0.3c0-0.1,0-0.2-0.1-0.2
				c0-0.1-0.1-0.1-0.3-0.2s-0.4-0.2-0.7-0.3c-0.3-0.1-0.5-0.3-0.7-0.4c-0.2-0.1-0.3-0.3-0.4-0.5c-0.1-0.2-0.1-0.4-0.1-0.7
				c0-0.4,0.2-0.8,0.5-1s0.8-0.3,1.4-0.3c0.3,0,0.6,0,0.9,0.1c0.3,0.1,0.6,0.2,0.8,0.3l-0.4,0.9c-0.2-0.1-0.5-0.2-0.7-0.3
				c-0.2-0.1-0.4-0.1-0.6-0.1c-0.2,0-0.3,0-0.4,0.1s-0.1,0.1-0.1,0.2c0,0.1,0,0.1,0.1,0.2c0.1,0.1,0.1,0.1,0.3,0.2
				c0.1,0.1,0.4,0.2,0.6,0.3c0.3,0.1,0.5,0.2,0.7,0.4c0.2,0.1,0.4,0.3,0.5,0.5S92,68.6,92,68.9z"/>
			<path class="st0" d="M95,65.4c0.4,0,0.8,0.1,1.2,0.3s0.6,0.4,0.7,0.7c0.2,0.3,0.3,0.7,0.3,1.2v0.6h-3.1c0,0.4,0.1,0.7,0.3,0.9
				c0.2,0.2,0.5,0.3,0.9,0.3c0.3,0,0.6,0,0.8-0.1s0.5-0.2,0.8-0.3v1c-0.2,0.1-0.5,0.2-0.7,0.3c-0.3,0.1-0.6,0.1-0.9,0.1
				c-0.5,0-0.9-0.1-1.3-0.3c-0.4-0.2-0.7-0.5-0.9-0.8s-0.3-0.8-0.3-1.4c0-0.6,0.1-1,0.3-1.4c0.2-0.4,0.5-0.7,0.8-0.8
				S94.6,65.4,95,65.4z M95,66.3c-0.3,0-0.5,0.1-0.6,0.2s-0.3,0.4-0.3,0.8h1.8c0-0.2,0-0.4-0.1-0.5s-0.2-0.3-0.3-0.4
				S95.2,66.3,95,66.3z"/>
			<path class="st0" d="M100.2,65.4c0.6,0,1.1,0.1,1.5,0.4c0.3,0.3,0.5,0.7,0.5,1.3v3.2h-0.9l-0.3-0.7h0c-0.1,0.2-0.3,0.3-0.4,0.4
				c-0.1,0.1-0.3,0.2-0.5,0.2c-0.2,0.1-0.4,0.1-0.7,0.1c-0.3,0-0.5-0.1-0.8-0.2c-0.2-0.1-0.4-0.3-0.5-0.5c-0.1-0.2-0.2-0.5-0.2-0.9
				c0-0.5,0.2-0.9,0.5-1.1c0.4-0.2,0.9-0.4,1.6-0.4l0.8,0v-0.2c0-0.3-0.1-0.4-0.2-0.6c-0.1-0.1-0.3-0.2-0.6-0.2
				c-0.2,0-0.5,0-0.7,0.1c-0.2,0.1-0.4,0.1-0.7,0.2l-0.4-0.9c0.3-0.1,0.5-0.2,0.9-0.3C99.5,65.4,99.9,65.4,100.2,65.4z M100.9,68.1
				l-0.5,0c-0.4,0-0.7,0.1-0.9,0.2c-0.2,0.1-0.2,0.3-0.2,0.6c0,0.2,0.1,0.3,0.2,0.4c0.1,0.1,0.3,0.1,0.5,0.1c0.3,0,0.5-0.1,0.7-0.2
				c0.2-0.2,0.3-0.4,0.3-0.7V68.1z"/>
			<path class="st0" d="M106.3,65.4c0.1,0,0.1,0,0.2,0c0.1,0,0.2,0,0.2,0l-0.1,1.2c0,0-0.1,0-0.2,0c-0.1,0-0.1,0-0.2,0
				c-0.2,0-0.3,0-0.5,0.1c-0.2,0-0.3,0.1-0.4,0.2c-0.1,0.1-0.2,0.2-0.3,0.4c-0.1,0.2-0.1,0.3-0.1,0.6v2.5h-1.3v-4.8h1l0.2,0.8h0.1
				c0.1-0.2,0.2-0.3,0.4-0.5c0.1-0.1,0.3-0.2,0.5-0.3S106.1,65.4,106.3,65.4z"/>
			<path class="st0" d="M109.5,70.4c-0.5,0-0.9-0.1-1.2-0.3c-0.3-0.2-0.6-0.4-0.8-0.8c-0.2-0.4-0.3-0.8-0.3-1.4
				c0-0.6,0.1-1.1,0.3-1.4c0.2-0.4,0.5-0.6,0.8-0.8c0.4-0.2,0.8-0.3,1.2-0.3c0.3,0,0.6,0,0.9,0.1c0.2,0.1,0.5,0.1,0.6,0.2l-0.4,1
				c-0.2-0.1-0.4-0.2-0.6-0.2c-0.2-0.1-0.4-0.1-0.5-0.1c-0.2,0-0.4,0.1-0.6,0.2c-0.2,0.1-0.3,0.3-0.3,0.5c-0.1,0.2-0.1,0.5-0.1,0.8
				c0,0.3,0,0.6,0.1,0.8c0.1,0.2,0.2,0.4,0.3,0.5c0.2,0.1,0.3,0.2,0.6,0.2c0.3,0,0.5,0,0.7-0.1s0.4-0.2,0.6-0.3V70
				c-0.2,0.1-0.4,0.2-0.6,0.3C110.2,70.4,109.9,70.4,109.5,70.4z"/>
			<path class="st0" d="M113.4,63.6V65c0,0.2,0,0.5,0,0.7s0,0.4,0,0.5h0.1c0.1-0.2,0.2-0.3,0.4-0.4c0.1-0.1,0.3-0.2,0.5-0.2
				c0.2,0,0.4-0.1,0.6-0.1c0.3,0,0.7,0.1,0.9,0.2s0.5,0.3,0.6,0.6c0.1,0.3,0.2,0.6,0.2,1v3.1h-1.3v-2.8c0-0.3-0.1-0.6-0.2-0.8
				c-0.1-0.2-0.3-0.3-0.6-0.3s-0.5,0.1-0.6,0.2s-0.3,0.3-0.3,0.5c-0.1,0.2-0.1,0.5-0.1,0.9v2.3h-1.3v-6.7H113.4z"/>
			<path class="st0" d="M122.3,63.9c0.3,0,0.6,0.1,0.9,0.2c0.3,0.1,0.5,0.3,0.6,0.5c0.2,0.2,0.2,0.5,0.2,0.7c0,0.4-0.1,0.7-0.4,1
				c-0.2,0.3-0.5,0.5-0.9,0.7l1.2,1.2c0.1-0.2,0.2-0.4,0.3-0.6c0.1-0.2,0.2-0.4,0.2-0.7h1.4c-0.1,0.3-0.2,0.7-0.4,1.1
				s-0.4,0.7-0.7,1.1l1.3,1.3h-1.6l-0.5-0.5c-0.2,0.1-0.4,0.2-0.5,0.3c-0.2,0.1-0.4,0.2-0.6,0.2c-0.2,0-0.5,0.1-0.7,0.1
				c-0.5,0-0.9-0.1-1.2-0.2s-0.6-0.4-0.8-0.6c-0.2-0.3-0.3-0.6-0.3-0.9c0-0.3,0-0.6,0.1-0.8c0.1-0.2,0.2-0.4,0.4-0.6
				c0.2-0.2,0.4-0.3,0.6-0.5c-0.2-0.2-0.3-0.3-0.4-0.5c-0.1-0.2-0.2-0.3-0.2-0.5c0-0.2-0.1-0.3-0.1-0.5c0-0.3,0.1-0.6,0.2-0.8
				c0.2-0.2,0.4-0.4,0.7-0.5C121.6,64,121.9,63.9,122.3,63.9z M121.8,67.6c-0.1,0.1-0.2,0.2-0.3,0.3c-0.1,0.1-0.1,0.2-0.2,0.3
				s-0.1,0.2-0.1,0.3c0,0.3,0.1,0.5,0.3,0.6s0.4,0.2,0.7,0.2c0.2,0,0.4,0,0.5-0.1s0.3-0.1,0.4-0.2L121.8,67.6z M122.3,64.9
				c-0.1,0-0.3,0-0.4,0.1c-0.1,0.1-0.2,0.2-0.2,0.4c0,0.1,0,0.3,0.1,0.4c0.1,0.1,0.2,0.3,0.3,0.4c0.2-0.1,0.4-0.3,0.6-0.4
				c0.1-0.1,0.2-0.3,0.2-0.5c0-0.2-0.1-0.3-0.2-0.4C122.5,65,122.4,64.9,122.3,64.9z"/>
			<path class="st0" d="M131.7,70.3h-1.3v-5.2h-1.7V64h4.8v1.1h-1.7V70.3z"/>
			<path class="st0" d="M136.9,65.4c0.1,0,0.1,0,0.2,0c0.1,0,0.2,0,0.2,0l-0.1,1.2c0,0-0.1,0-0.2,0c-0.1,0-0.1,0-0.2,0
				c-0.2,0-0.3,0-0.5,0.1c-0.2,0-0.3,0.1-0.4,0.2c-0.1,0.1-0.2,0.2-0.3,0.4c-0.1,0.2-0.1,0.3-0.1,0.6v2.5h-1.3v-4.8h1l0.2,0.8h0.1
				c0.1-0.2,0.2-0.3,0.4-0.5c0.1-0.1,0.3-0.2,0.5-0.3S136.7,65.4,136.9,65.4z"/>
			<path class="st0" d="M140.2,65.4c0.6,0,1.1,0.1,1.5,0.4c0.3,0.3,0.5,0.7,0.5,1.3v3.2h-0.9l-0.3-0.7h0c-0.1,0.2-0.3,0.3-0.4,0.4
				c-0.1,0.1-0.3,0.2-0.5,0.2c-0.2,0.1-0.4,0.1-0.7,0.1c-0.3,0-0.5-0.1-0.8-0.2c-0.2-0.1-0.4-0.3-0.5-0.5c-0.1-0.2-0.2-0.5-0.2-0.9
				c0-0.5,0.2-0.9,0.5-1.1c0.4-0.2,0.9-0.4,1.6-0.4l0.8,0v-0.2c0-0.3-0.1-0.4-0.2-0.6c-0.1-0.1-0.3-0.2-0.6-0.2
				c-0.2,0-0.5,0-0.7,0.1c-0.2,0.1-0.4,0.1-0.7,0.2l-0.4-0.9c0.3-0.1,0.5-0.2,0.9-0.3C139.6,65.4,139.9,65.4,140.2,65.4z
				 M140.9,68.1l-0.5,0c-0.4,0-0.7,0.1-0.9,0.2c-0.2,0.1-0.2,0.3-0.2,0.6c0,0.2,0.1,0.3,0.2,0.4c0.1,0.1,0.3,0.1,0.5,0.1
				c0.3,0,0.5-0.1,0.7-0.2c0.2-0.2,0.3-0.4,0.3-0.7V68.1z"/>
			<path class="st0" d="M144.3,63.6c0.2,0,0.4,0,0.5,0.1s0.2,0.3,0.2,0.5c0,0.2-0.1,0.4-0.2,0.5c-0.1,0.1-0.3,0.1-0.5,0.1
				c-0.2,0-0.4,0-0.5-0.1c-0.1-0.1-0.2-0.3-0.2-0.5c0-0.2,0.1-0.4,0.2-0.5C143.9,63.6,144.1,63.6,144.3,63.6z M144.9,65.5v4.8h-1.3
				v-4.8H144.9z"/>
			<path class="st0" d="M149,65.4c0.5,0,0.9,0.1,1.2,0.4c0.3,0.3,0.5,0.7,0.5,1.3v3.1h-1.3v-2.8c0-0.3-0.1-0.6-0.2-0.8
				c-0.1-0.2-0.3-0.3-0.6-0.3c-0.4,0-0.7,0.1-0.8,0.4c-0.1,0.3-0.2,0.7-0.2,1.2v2.3h-1.3v-4.8h1l0.2,0.6h0.1
				c0.1-0.2,0.2-0.3,0.4-0.4c0.2-0.1,0.3-0.2,0.5-0.2C148.6,65.4,148.8,65.4,149,65.4z"/>
			<path class="st0" d="M152.8,63.6c0.2,0,0.4,0,0.5,0.1c0.1,0.1,0.2,0.3,0.2,0.5c0,0.2-0.1,0.4-0.2,0.5c-0.1,0.1-0.3,0.1-0.5,0.1
				c-0.2,0-0.4,0-0.5-0.1c-0.1-0.1-0.2-0.3-0.2-0.5c0-0.2,0.1-0.4,0.2-0.5S152.6,63.6,152.8,63.6z M153.4,65.5v4.8h-1.3v-4.8H153.4z
				"/>
			<path class="st0" d="M157.5,65.4c0.5,0,0.9,0.1,1.2,0.4c0.3,0.3,0.5,0.7,0.5,1.3v3.1h-1.3v-2.8c0-0.3-0.1-0.6-0.2-0.8
				c-0.1-0.2-0.3-0.3-0.6-0.3c-0.4,0-0.7,0.1-0.8,0.4c-0.1,0.3-0.2,0.7-0.2,1.2v2.3h-1.3v-4.8h1l0.2,0.6h0.1
				c0.1-0.2,0.2-0.3,0.4-0.4c0.2-0.1,0.3-0.2,0.5-0.2C157.1,65.4,157.3,65.4,157.5,65.4z"/>
			<path class="st0" d="M162,72.4c-0.7,0-1.2-0.1-1.5-0.4c-0.4-0.2-0.5-0.6-0.5-1c0-0.3,0.1-0.5,0.3-0.7c0.2-0.2,0.4-0.3,0.8-0.4
				c-0.1-0.1-0.3-0.2-0.4-0.3s-0.2-0.3-0.2-0.4c0-0.2,0.1-0.3,0.2-0.5s0.3-0.2,0.5-0.4c-0.3-0.1-0.5-0.3-0.6-0.5
				c-0.1-0.2-0.2-0.5-0.2-0.9c0-0.4,0.1-0.6,0.2-0.9c0.2-0.2,0.4-0.4,0.7-0.6c0.3-0.1,0.7-0.2,1.1-0.2c0.1,0,0.2,0,0.3,0
				c0.1,0,0.2,0,0.3,0c0.1,0,0.2,0,0.2,0h1.7v0.7l-0.8,0.2c0.1,0.1,0.1,0.2,0.2,0.3c0,0.1,0.1,0.2,0.1,0.4c0,0.5-0.2,0.9-0.5,1.2
				c-0.4,0.3-0.9,0.4-1.5,0.4c-0.2,0-0.3,0-0.4,0c-0.1,0.1-0.1,0.1-0.2,0.2c0,0.1-0.1,0.1-0.1,0.2c0,0.1,0,0.1,0.1,0.2
				c0.1,0,0.1,0.1,0.2,0.1c0.1,0,0.2,0,0.4,0h0.8c0.5,0,0.9,0.1,1.2,0.3c0.3,0.2,0.4,0.6,0.4,1c0,0.6-0.2,1-0.7,1.3
				C163.6,72.3,162.9,72.4,162,72.4z M162.1,71.6c0.3,0,0.6,0,0.8-0.1s0.4-0.1,0.5-0.2c0.1-0.1,0.2-0.2,0.2-0.4c0-0.1,0-0.2-0.1-0.3
				c-0.1-0.1-0.2-0.1-0.3-0.1s-0.3,0-0.5,0h-0.7c-0.2,0-0.3,0-0.4,0.1s-0.2,0.1-0.3,0.2c-0.1,0.1-0.1,0.2-0.1,0.3
				c0,0.2,0.1,0.3,0.3,0.4S161.7,71.6,162.1,71.6z M162.3,67.9c0.2,0,0.4-0.1,0.5-0.2c0.1-0.2,0.2-0.4,0.2-0.6
				c0-0.3-0.1-0.5-0.2-0.7c-0.1-0.1-0.3-0.2-0.5-0.2c-0.2,0-0.4,0.1-0.5,0.2c-0.1,0.1-0.2,0.4-0.2,0.7c0,0.3,0.1,0.5,0.2,0.6
				C161.8,67.8,162,67.9,162.3,67.9z"/>
		</g>
	</g>
</g>
</svg>
